HIERARCHY
ROOT Hips
{
	OFFSET 0.000000 0.000000 0.000000
	CHANNELS 6 Xposition Yposition Zposition Zrotation Yrotation Xrotation 
	JOINT LHipJoint
	{
		OFFSET 0.000000 0.000000 0.000000
		CHANNELS 3 Zrotation Yrotation Xrotation
		JOINT LeftUpLeg
		{
			OFFSET 1.363060 -1.794630 0.839290
			CHANNELS 3 Zrotation Yrotation Xrotation
			JOINT LeftLeg
			{
				OFFSET 2.448110 -6.726130 0.000000
				CHANNELS 3 Zrotation Yrotation Xrotation
				JOINT LeftFoot
				{
					OFFSET 2.562200 -7.039590 0.000000
					CHANNELS 3 Zrotation Yrotation Xrotation
					JOINT LeftToeBase
					{
						OFFSET 0.157640 -0.433110 2.322550
						CHANNELS 3 Zrotation Yrotation Xrotation
						End Site
						{
							OFFSET 0.000000 0.000000 0.000000
						}
					}
				}
			}
		}
	}
	JOINT RHipJoint
	{
		OFFSET 0.000000 0.000000 0.000000
		CHANNELS 3 Zrotation Yrotation Xrotation
		JOINT RightUpLeg
		{
			OFFSET -1.305520 -1.794630 0.839290
			CHANNELS 3 Zrotation Yrotation Xrotation
			JOINT RightLeg
			{
				OFFSET -2.542530 -6.985550 0.000000
				CHANNELS 3 Zrotation Yrotation Xrotation
				JOINT RightFoot
				{
					OFFSET -2.568260 -7.056230 0.000000
					CHANNELS 3 Zrotation Yrotation Xrotation
					JOINT RightToeBase
					{
						OFFSET -0.164730 -0.452590 2.363150
						CHANNELS 3 Zrotation Yrotation Xrotation
						End Site
						{
							OFFSET 0.000000 0.000000 0.000000
						}
					}
				}
			}
		}
	}
	JOINT LowerBack
	{
		OFFSET 0.000000 0.000000 0.000000
		CHANNELS 3 Zrotation Yrotation Xrotation
		JOINT Spine
		{
			OFFSET 0.028270 2.035590 -0.193380
			CHANNELS 3 Zrotation Yrotation Xrotation
			JOINT Spine1
			{
				OFFSET 0.056720 2.048850 -0.042750
				CHANNELS 3 Zrotation Yrotation Xrotation
				JOINT Neck
				{
					OFFSET 0.000000 0.000000 0.000000
					CHANNELS 3 Zrotation Yrotation Xrotation
					JOINT Neck1
					{
						OFFSET -0.054170 1.746240 0.172020
						CHANNELS 3 Zrotation Yrotation Xrotation
						JOINT Head
						{
							OFFSET 0.104070 1.761360 -0.123970
							CHANNELS 3 Zrotation Yrotation Xrotation
							End Site
							{
								OFFSET 0.000000 0.000000 0.000000
							}
						}
					}
				}
				JOINT LeftShoulder
				{
					OFFSET 0.000000 0.000000 0.000000
					CHANNELS 3 Zrotation Yrotation Xrotation
					JOINT LeftArm
					{
						OFFSET 3.362410 1.200890 -0.311210
						CHANNELS 3 Zrotation Yrotation Xrotation
						JOINT LeftForeArm
						{
							OFFSET 4.983000 -0.000000 -0.000000
							CHANNELS 3 Zrotation Yrotation Xrotation
							JOINT LeftHand
							{
								OFFSET 3.483560 -0.000000 -0.000000
								CHANNELS 3 Zrotation Yrotation Xrotation
								JOINT LeftFingerBase
								{
									OFFSET 0.000000 0.000000 0.000000
									CHANNELS 3 Zrotation Yrotation Xrotation
									JOINT LeftHandIndex1
									{
										OFFSET 0.715260 -0.000000 -0.000000
										CHANNELS 3 Zrotation Yrotation Xrotation
										End Site
										{
											OFFSET 0.000000 0.000000 0.000000
										}
									}
								}
								JOINT LThumb
								{
									OFFSET 0.000000 0.000000 0.000000
									CHANNELS 3 Zrotation Yrotation Xrotation
									End Site
									{
										OFFSET 0.000000 0.000000 0.000000
									}
								}
							}
						}
					}
				}
				JOINT RightShoulder
				{
					OFFSET 0.000000 0.000000 0.000000
					CHANNELS 3 Zrotation Yrotation Xrotation
					JOINT RightArm
					{
						OFFSET -3.136600 1.374050 -0.404650
						CHANNELS 3 Zrotation Yrotation Xrotation
						JOINT RightForeArm
						{
							OFFSET -5.241900 -0.000000 -0.000000
							CHANNELS 3 Zrotation Yrotation Xrotation
							JOINT RightHand
							{
								OFFSET -3.444170 -0.000000 -0.000000
								CHANNELS 3 Zrotation Yrotation Xrotation
								JOINT RightFingerBase
								{
									OFFSET 0.000000 0.000000 0.000000
									CHANNELS 3 Zrotation Yrotation Xrotation
									JOINT RightHandIndex1
									{
										OFFSET -0.622530 -0.000000 -0.000000
										CHANNELS 3 Zrotation Yrotation Xrotation
										End Site
										{
											OFFSET 0.000000 0.000000 0.000000
										}
									}
								}
								JOINT RThumb
								{
									OFFSET 0.000000 0.000000 0.000000
									CHANNELS 3 Zrotation Yrotation Xrotation
									End Site
									{
										OFFSET 0.000000 0.000000 0.000000
									}
								}
							}
						}
					}
				}
			}
		}
	}
}
MOTION
Frames: 9
Frame Time: 0.008333
9.254247 18.328775 -44.845643 -3.432679 -20.579288 5.989438 -0.293339 1.864246 1.415644 -15.999071 -18.292605 -10.268615 -1.124633 9.841972 30.018290 5.374081 -22.244007 19.279146 0.929700 6.142400 17.198100 -3.236511 -2.324070 0.296042 25.172954 15.868766 -8.338207 0.757202 -10.171390 29.633593 5.638808 -19.521654 -4.133564 -0.644600 5.136000 -14.297000 2.967626 0.288879 7.150316 4.341008 0.836383 1.118446 -3.446272 0.127160 -12.105166 -1.437459 4.434621 -13.321456 5.497243 5.856547 9.223290 -0.829500 3.117700 3.733900 -0.993584 -10.648358 2.003505 -77.149267 -14.448782 37.687464 41.999224 -40.407739 -18.100814 0.196858 0.812503 -0.988294 19.543426 -33.931199 -11.337500 -7.125000 0.000000 0.000000 -7.390200 -6.163600 8.206200 -0.182405 11.311719 3.173654 76.618142 -8.896254 31.688554 -31.124128 34.627076 -11.217133 0.940295 0.424772 6.628116 -10.316342 -52.346980 8.945800 7.125000 0.000000 0.000000 65.953700 -75.323200 -51.480000 
9.204568 18.326769 -44.865467 -3.421578 -18.795051 6.057662 -0.219237 1.784547 1.404586 -15.976458 -17.100842 -11.097154 -0.926781 10.119613 30.618648 5.491221 -21.924685 17.638305 0.473500 4.413100 12.242000 -3.235504 -2.322794 0.327734 25.465482 15.648111 -8.161747 0.840477 -10.059378 29.326616 5.946057 -20.459795 -4.884819 -0.637500 5.108400 -14.217900 3.071254 0.412956 6.444074 4.095936 0.933270 1.793421 -3.555657 0.214228 -11.527966 -2.144265 3.817082 -13.505512 6.078694 4.985852 8.816803 -0.565700 2.663600 3.568100 -0.946603 -10.767797 2.008994 -76.764694 -14.778107 38.921296 41.982563 -40.384814 -18.139064 0.253323 0.806124 -1.181971 17.378978 -34.190720 -10.038300 -7.125000 0.000000 0.000000 -8.634200 -5.968900 9.589800 -0.179782 11.254769 3.118440 76.478675 -8.328859 30.932825 -30.290751 33.862876 -10.731915 0.963339 0.434452 6.607427 -10.252315 -52.979228 8.985100 7.125000 0.000000 0.000000 68.338000 -75.495300 -53.845900 
9.159373 18.318745 -44.877858 -3.324842 -17.072656 6.138569 -0.145378 1.698995 1.322196 -16.136068 -15.899984 -11.891768 -0.669590 10.459919 31.306756 5.652804 -21.247695 15.097248 0.017600 0.856900 2.355100 -3.231948 -2.313807 0.309061 25.621506 15.358998 -7.999108 0.930265 -9.938586 29.001115 6.208155 -21.253193 -5.652448 -0.609500 4.997000 -13.900000 3.038996 0.488740 6.838810 3.912144 1.051974 1.377240 -3.597789 0.271617 -11.867111 -2.728279 3.119902 -13.550093 6.599489 4.047408 9.051206 -0.330800 2.217600 3.599300 -0.938549 -10.745569 2.031483 -76.750896 -13.939106 39.931213 42.111605 -40.501567 -18.311687 0.286996 0.793708 -1.312071 15.520190 -34.414325 -8.933800 -7.125000 0.000000 0.000000 -9.687000 -5.818700 10.767300 -0.139744 11.206289 3.132473 76.374607 -8.729863 30.786399 -29.487309 33.098579 -10.230035 0.989077 0.432880 6.044949 -10.577731 -52.112891 9.169500 7.125000 0.000000 0.000000 64.898200 -75.363200 -50.569000 
9.124562 18.310131 -44.892962 -3.225114 -15.101709 6.305192 -0.075457 1.574907 1.223162 -16.177126 -15.174694 -12.783825 -0.567961 10.677722 31.823227 5.612372 -21.278827 15.279886 0.259700 3.278400 9.054700 -3.223013 -2.287227 0.308217 25.713649 14.772959 -8.092836 1.022262 -9.818238 28.641081 6.519925 -22.183365 -6.314015 -0.658000 5.188300 -14.446500 3.233850 0.451444 6.705404 3.664013 0.996084 1.366438 -3.736897 0.249969 -11.780838 -3.351736 2.495547 -13.611899 7.069413 3.196994 8.931327 -0.112500 1.789800 3.534900 -0.900562 -10.784111 2.048735 -76.566270 -13.456912 40.648337 42.252933 -40.604391 -18.458551 0.289115 0.794121 -1.643092 14.926154 -34.679751 -8.625100 -7.125000 0.000000 0.000000 -10.043200 -5.969700 11.198700 -0.111638 11.145758 3.121465 76.200148 -8.695426 30.580757 -28.637111 32.300409 -9.787878 1.002086 0.463966 4.976636 -11.289308 -53.217386 9.896500 7.125000 0.000000 0.000000 68.720600 -75.965300 -54.713300 
9.088689 18.299511 -44.903936 -3.078552 -13.291331 6.463159 -0.016781 1.464326 1.132040 -16.298379 -14.253381 -13.656987 -0.400586 10.941103 32.397914 5.669810 -21.230822 14.368932 0.227000 3.066500 8.463800 -3.225453 -2.265397 0.301915 25.768756 14.297708 -8.135413 1.116159 -9.697208 28.297223 6.802698 -23.027612 -7.113626 -0.643000 5.129900 -14.279300 3.420613 0.459463 6.706418 3.299802 1.007474 1.264750 -3.904746 0.257287 -11.794847 -3.847813 1.926358 -13.555748 7.494680 2.397984 8.652074 0.069000 1.379800 3.405400 -0.855712 -10.820594 2.075480 -76.269598 -13.003684 41.308404 42.303447 -40.653450 -18.531955 0.298330 0.795733 -1.819890 14.264363 -34.869143 -8.254100 -7.125000 0.000000 0.000000 -10.427900 -6.036800 11.652300 -0.070845 11.075463 3.106737 76.107692 -8.759926 30.380768 -27.757298 31.429714 -9.304295 1.028442 0.470260 3.943531 -13.524651 -53.316745 11.762200 7.125000 0.000000 0.000000 68.068100 -76.848100 -55.065300 
9.039718 18.288418 -44.919867 -2.911986 -11.610599 6.571068 0.030284 1.384343 1.060714 -16.391224 -13.044033 -14.490418 -0.146974 11.248119 32.996982 5.907016 -21.130203 11.946515 0.019400 -0.900100 -2.474100 -3.242136 -2.253438 0.292938 25.920173 14.217919 -7.914062 1.228342 -9.559824 27.958892 7.027950 -23.743700 -8.325004 -0.488000 4.479100 -12.428600 3.479999 0.495592 7.021637 2.811768 1.064680 1.042366 -4.028642 0.287524 -12.036978 -4.125348 1.318775 -13.601624 7.890236 1.554009 8.546582 0.216500 0.962200 3.360100 -0.811390 -10.818768 2.112433 -75.841541 -12.424566 41.945211 42.192832 -40.605633 -18.477002 0.316191 0.796690 -1.496772 13.714602 -34.766101 -7.893200 -7.125000 0.000000 0.000000 -10.719100 -5.840400 11.955900 -0.019402 11.026563 3.088888 76.238029 -8.707449 29.269227 -27.332671 30.989676 -9.016707 1.042532 0.444009 7.189767 -7.700477 -52.439115 6.932100 7.125000 0.000000 0.000000 67.746300 -74.424500 -52.119100 
9.002311 18.272960 -44.937803 -2.833956 -9.972765 6.311658 0.099759 1.384273 1.053456 -16.547244 -11.892330 -14.992298 0.184048 11.581567 33.674294 6.216740 -20.467733 8.520144 1.241600 -7.065500 -19.909600 -3.216831 -2.301385 0.350562 26.142433 14.066010 -7.399244 1.318406 -9.405320 27.633133 7.276549 -24.524752 -9.240004 -0.407900 4.099900 -11.358000 3.133815 0.594922 7.309015 3.051368 1.167323 1.415897 -3.837078 0.388526 -12.146297 -4.781376 0.661779 -13.657137 8.086939 0.701477 8.331002 0.356900 0.516500 3.291300 -0.828227 -10.846647 2.098645 -75.957732 -12.150560 42.477919 41.933902 -40.432966 -18.301417 0.341401 0.788485 -0.969594 13.202968 -34.296940 -7.486700 -7.125000 0.000000 0.000000 -10.953300 -5.285000 12.130600 -0.034600 10.988418 3.076317 75.727463 -8.247756 28.438697 -26.257200 29.920829 -8.484067 1.062100 0.449589 8.227608 -5.600276 -53.583840 5.335600 7.125000 0.000000 0.000000 72.822900 -73.981900 -56.311400 
8.964196 18.260688 -44.946889 -2.723292 -8.173117 6.423926 0.144583 1.313376 0.961344 -16.558774 -11.172215 -15.697381 0.398487 11.856970 34.226798 6.349870 -19.879060 6.765749 2.054100 -8.977800 -25.726100 -3.230677 -2.298182 0.348560 26.364694 13.890695 -7.220961 1.422473 -9.269216 27.254265 7.627855 -25.613847 -10.119335 -0.382300 3.970800 -10.994400 3.327036 0.528302 7.541103 2.688784 1.097270 1.221956 -4.001143 0.350524 -12.324646 -5.392905 0.104047 -13.368580 8.668905 -0.095012 8.112971 0.615500 0.114300 3.170800 -0.788519 -10.874885 2.125652 -75.690457 -11.433037 42.738887 41.700816 -40.299438 -18.137496 0.372572 0.782171 -0.628091 12.394924 -33.867422 -6.915700 -7.125000 0.000000 0.000000 -11.361800 -4.723300 12.498400 0.018420 10.903722 3.055787 75.720768 -8.469594 28.031301 -25.545296 29.140330 -8.066497 1.104637 0.410369 8.775390 -7.134765 -52.451829 6.520000 7.125000 0.000000 0.000000 68.064700 -74.239100 -52.202000 
8.921715 18.255378 -44.957863 -2.757570 -6.430678 6.756857 0.222394 1.228006 0.874516 -16.335433 -10.761714 -16.406481 0.567621 12.091728 34.757925 6.370205 -19.259842 5.942455 1.795200 -8.425800 -24.015100 -3.225184 -2.275491 0.374102 26.686852 13.846831 -7.254016 1.558750 -9.139527 26.845083 7.891786 -26.507556 -11.305829 -0.295700 3.496400 -9.664000 3.182600 0.555072 6.937879 2.821537 1.064819 1.565410 -3.904294 0.378316 -11.866479 -5.907394 -0.258952 -13.247880 9.042968 -0.622420 7.331345 0.795900 -0.194200 2.907300 -0.797252 -10.974217 2.125543 -75.568852 -11.336053 42.692710 41.141029 -39.919571 -17.701941 0.426666 0.786635 -0.197258 11.531885 -33.775103 -6.368900 -7.125000 0.000000 0.000000 -11.848900 -4.500400 13.014300 0.010070 10.838098 3.031538 75.327212 -8.303420 27.583107 -24.637914 28.170556 -7.648243 1.134155 0.397251 9.496369 -7.191691 -53.341079 6.660300 7.125000 0.000000 0.000000 71.094300 -74.516900 -55.305300 
